<?xml version="1.0" encoding="UTF-8"?>
<svg id="Layer_1" data-name="Layer 1" xmlns="http://www.w3.org/2000/svg" viewBox="0 0 200 65.9">
  <defs>
    <style>
      .cls-1 {
        fill: #fff;
      }

      .cls-2 {
        fill: #1b1b45;
      }

      .cls-3 {
        fill: #c73434;
      }
    </style>
  </defs>
  <path class="cls-2" d="m122.45,17.18c-.31.43-.68.8-1.12,1.1-.44.3-.94.52-1.49.67-.55.15-1.15.23-1.78.23-1.14,0-2.15-.25-3.04-.76-.88-.5-1.58-1.26-2.08-2.25-.5-.99-.76-2.22-.76-3.68s.25-2.64.75-3.64c.5-1,1.2-1.75,2.08-2.27.89-.52,1.9-.78,3.05-.78.65,0,1.25.08,1.81.24.56.16,1.06.39,1.5.7.44.31.81.69,1.1,1.13.29.44.5.95.61,1.52h3.85c-.16-1.06-.49-2-1.01-2.83-.51-.83-1.16-1.53-1.95-2.1-.79-.57-1.69-1.01-2.7-1.3-1.01-.3-2.1-.45-3.28-.45-1.84,0-3.49.39-4.95,1.16-1.46.77-2.61,1.89-3.45,3.35-.85,1.46-1.27,3.21-1.27,5.27s.42,3.8,1.26,5.26c.84,1.46,1.99,2.58,3.44,3.36,1.46.77,3.11,1.16,4.97,1.16,1.26,0,2.4-.17,3.43-.51,1.03-.34,1.93-.81,2.7-1.41.77-.6,1.39-1.3,1.87-2.1.48-.79.79-1.64.93-2.55l-3.85-.02c-.12.56-.33,1.05-.63,1.49Z"/>
  <path class="cls-2" d="m153.3,2.98v19.03h3.82V2.98h-3.82Z"/>
  <path class="cls-2" d="m175.75,2.98v12.97h-.18l-9.94-12.97h-3.42v19.03h3.82v-12.97h.18l9.95,12.97h3.4V2.98h-3.8Z"/>
  <path class="cls-3" d="m39.8,45.16l-1.32-25.14c-.05-1.37.44-2.2,1.51-3.08v-.39l-6.15-.05-9.57,25.59-11.18-25.54h-6.3v.39c1.32.63,1.95,1.71,1.9,3.08l-1.32,25.14c-.1,2.2-.83,4.25-2.69,5.42v.39h6.4v-.39c-1.86-.88-3.03-3.27-2.93-5.42l1.22-24.61,12.5,28.03h.68l10.99-29.2,1.42,26.32c.1,2.15-.54,4-2.05,4.88v.39h9.52v-.39c-1.86-1.17-2.49-2.64-2.64-5.42Z"/>
  <path class="cls-3" d="m62.55,46.18l-.1-11.82c-.05-4.64-4.3-6.35-8.3-6.35-3.56,0-9.42,1.27-9.42,5.81,0,1.17,1.22,2,2.29,2,.78,0,2.15-.54,2.15-1.51,0-3.08.68-5.57,4.25-5.57,4.35,0,4.15,5.13,4.15,8.15-5.47,0-13.62,1.22-13.62,8.25,0,4.2,2.64,5.81,6.49,5.81,2.64,0,5.22-.93,7.18-2.69,0,.05.68,2.44.73,2.69l6.69-1.42v-.39c-1.37-.19-2.49-1.66-2.49-2.98Zm-4.98,1.17c-1.22.98-2.64,1.9-4.2,1.9-3.22,0-4.39-2.15-4.39-5.13,0-3.91,3.56-6.49,7.32-6.49.44,0,.83.05,1.27.1v9.62Z"/>
  <path class="cls-3" d="m88.67,22.94c-3.51,0-5.22,3.56-6.15,5.91-1.47-.54-3.17-.83-4.88-.83-6.1,0-11.28,3.56-11.28,9.23,0,2.73,1.37,5.32,3.37,6.74-2.1.63-3.91,1.9-3.91,4.1,0,4.93,7.18,4.88,10.6,5.42,2.15.29,4.49.59,6.2,1.12,1.86.63,2.64,1.81,2.59,3.03,0,3.66-4.44,4.83-7.32,4.83-4.88,0-6.49-3.08-6.45-6.49,0-1.32-1.27-2.15-2.59-2.15-1.46,0-2.98,1.07-2.69,3.86.54,4.88,8.01,5.47,11.13,5.47,3.51,0,7.23-.34,9.67-2.05,3.37-2.49,3.96-7.81-.24-9.96-3.22-1.66-8.59-2.05-13.57-2.44-1.56-.1-4.15-.05-4.15-2.05,0-.73.54-1.56,1.42-2.2,1.95,1.27,4.49,2,7.23,2,6.1,0,11.28-3.56,11.28-9.23,0-3.76-2.24-6.59-5.57-8.06.68-1.51,1.95-1.9,3.17-1.81,1.47.1,2.3.83,3.52.73,2.49-.24,2.73-5.18-1.37-5.18Zm-4.78,14.31c0,5.22-2.88,8.5-6.25,8.5s-6.3-3.27-6.3-8.5,2.93-8.5,6.3-8.5,6.25,3.27,6.25,8.5Z"/>
  <path class="cls-3" d="m109.76,46.18l-.1-11.82c-.05-4.64-4.3-6.35-8.3-6.35-3.56,0-9.42,1.27-9.42,5.81,0,1.17,1.22,2,2.29,2,.78,0,2.15-.54,2.15-1.51,0-3.08.68-5.57,4.25-5.57,4.35,0,4.15,5.13,4.15,8.15-5.47,0-13.62,1.22-13.62,8.25,0,4.2,2.64,5.81,6.49,5.81,2.64,0,5.22-.93,7.18-2.69,0,.05.68,2.44.73,2.69l6.69-1.42v-.39c-1.37-.19-2.49-1.66-2.49-2.98Zm-4.98,1.17c-1.22.98-2.64,1.9-4.2,1.9-3.22,0-4.39-2.15-4.39-5.13,0-3.91,3.56-6.49,7.32-6.49.44,0,.83.05,1.27.1v9.62Z"/>
  <path class="cls-3" d="m114.31,28.02l-.88,5.18h.49c2.29-2.98,4.2-4.44,6.93-4.44h5.71l-3.63,5.89-1.51,2.45h5.73l5.17-8.53v-.54h-18.02Zm17.92,17.67c-1.07,2-2.93,4.54-5.86,4.54h-7.18l4.02-6.64h-5.8l-.79,1.28-3.55,5.76v.34h18.85l.83-5.27h-.54Z"/>
  <path class="cls-3" d="m144.67,50.58v.39h-8.59v-.39c1.46-1.46,1.81-2.39,1.81-4.64v-18.21c0-1.95-.4-3.05-1.62-4.13,1.18.57,2.5.89,3.89.89.91,0,1.79-.14,2.61-.39v21.84c0,2.25.54,3.17,1.9,4.64Z"/>
  <path class="cls-3" d="m169.33,45.94l-.1-12.21c0-3.91-2.78-5.71-6.4-5.71-4.05,0-6.3,2.64-8.25,5.91v-5.91l-7.13.98v.39c1.71,1.27,2.25,2.39,2.25,4.64v11.91c0,2.25-.34,3.17-1.81,4.64v.39h8.59v-.39c-1.37-1.46-1.9-2.39-1.9-4.64v-10.55c1.37-2.34,3.22-4.79,6.2-4.79,2.1,0,3.56,1.81,3.56,4.1l.1,11.23c0,2.25-.34,3.17-1.81,4.64v.39h8.59v-.39c-1.37-1.46-1.9-2.39-1.9-4.64Z"/>
  <path class="cls-3" d="m194.91,44.42c-2.05,3.03-5.18,4-7.91,3.91-4.15-.15-7.96-3.42-7.96-8.84,0-.68.05-1.32.1-1.95h15.87c0-5.66-4.49-9.52-9.62-9.52-6.88,0-11.47,4.59-11.47,11.47s4.59,11.47,11.47,11.47c5.13,0,7.67-2.98,9.91-6.2l-.39-.34Zm-9.52-15.67c3.42,0,4.93,4.64,4.54,7.96h-10.69c.63-4.88,2.93-7.96,6.15-7.96Z"/>
  <polygon class="cls-3" points="126.34 38.42 125.97 39.04 120.22 39.04 120.6 38.42 126.34 38.42"/>
  <polygon class="cls-3" points="125.55 39.73 125.17 40.35 119.41 40.35 119.79 39.73 125.55 39.73"/>
  <polygon class="cls-3" points="121.26 41.04 120.46 42.34 118.19 42.34 118.99 41.04 121.26 41.04"/>
  <polygon class="cls-3" points="124.75 41.04 123.96 42.34 121.16 42.34 121.96 41.04 124.75 41.04"/>
  <path class="cls-2" d="m141.46,12.85c-.13-.17-.29-.3-.48-.38-.19-.09-.43-.16-.72-.24v-1.41c.37.05.71.21,1.03.47l.29-.61c-.15-.14-.34-.25-.56-.35-.22-.09-.46-.15-.71-.18v-.72h-.66v.72c-.27.04-.52.12-.73.25-.21.13-.38.29-.49.48-.12.19-.18.41-.18.64,0,.28.07.51.2.69.13.18.3.31.5.4.2.09.45.17.74.24v1.36c-.44-.03-.85-.19-1.23-.49l-.29.61c.19.16.41.28.65.37.25.09.52.15.81.17v.71h.66v-.72c.41-.06.74-.21.99-.45.25-.24.37-.54.37-.89,0-.27-.07-.5-.2-.67Zm-1.78-.77c-.19-.07-.34-.14-.44-.24-.1-.09-.16-.22-.16-.37,0-.17.05-.31.16-.42.11-.11.25-.19.44-.23v1.26Zm.99,1.87c-.09.11-.23.18-.42.22v-1.17c.18.06.32.13.42.21.1.08.14.19.14.33,0,.17-.05.31-.14.41Z"/>
  <path class="cls-2" d="m139.92,2.98c-5.26,0-9.52,4.26-9.52,9.52s4.26,9.52,9.52,9.52,9.52-4.26,9.52-9.52-4.26-9.52-9.52-9.52Zm0,15.25c-3.16,0-5.73-2.56-5.73-5.73s2.56-5.73,5.73-5.73,5.73,2.56,5.73,5.73-2.56,5.73-5.73,5.73Z"/>
  <path class="cls-1" d="m141.46,12.85c-.13-.17-.29-.3-.48-.38-.19-.09-.43-.16-.72-.24v-1.41c.37.05.71.21,1.03.47l.29-.61c-.15-.14-.34-.25-.56-.35-.22-.09-.46-.15-.71-.18v-.72h-.66v.72c-.27.04-.52.12-.73.25-.21.13-.38.29-.49.48-.12.19-.18.41-.18.64,0,.28.07.51.2.69.13.18.3.31.5.4.2.09.45.17.74.24v1.36c-.44-.03-.85-.19-1.23-.49l-.29.61c.19.16.41.28.65.37.25.09.52.15.81.17v.71h.66v-.72c.41-.06.74-.21.99-.45.25-.24.37-.54.37-.89,0-.27-.07-.5-.2-.67Zm-1.78-.77c-.19-.07-.34-.14-.44-.24-.1-.09-.16-.22-.16-.37,0-.17.05-.31.16-.42.11-.11.25-.19.44-.23v1.26Zm.99,1.87c-.09.11-.23.18-.42.22v-1.17c.18.06.32.13.42.21.1.08.14.19.14.33,0,.17-.05.31-.14.41Z"/>
  <path class="cls-2" d="m141.46,12.85c-.13-.17-.29-.3-.48-.38-.19-.09-.43-.16-.72-.24v-1.41c.37.05.71.21,1.03.47l.29-.61c-.15-.14-.34-.25-.56-.35-.22-.09-.46-.15-.71-.18v-.72h-.66v.72c-.27.04-.52.12-.73.25-.21.13-.38.29-.49.48-.12.19-.18.41-.18.64,0,.28.07.51.2.69.13.18.3.31.5.4.2.09.45.17.74.24v1.36c-.44-.03-.85-.19-1.23-.49l-.29.61c.19.16.41.28.65.37.25.09.52.15.81.17v.71h.66v-.72c.41-.06.74-.21.99-.45.25-.24.37-.54.37-.89,0-.27-.07-.5-.2-.67Zm-1.78-.77c-.19-.07-.34-.14-.44-.24-.1-.09-.16-.22-.16-.37,0-.17.05-.31.16-.42.11-.11.25-.19.44-.23v1.26Zm.99,1.87c-.09.11-.23.18-.42.22v-1.17c.18.06.32.13.42.21.1.08.14.19.14.33,0,.17-.05.31-.14.41Z"/>
</svg>